# xmcd CD database file
# Copyright (C) 1995-1998 Ti Kan
#
# Track frame offsets:
#       150
#       20585
#       40760
#       58010
#       79345
#       100660
#       136372
#       153997
#       170747
#       186870
#       208672
#       224190
#
# Disc length: 3397 seconds
#
# Revision: 1
# Processed by: cddbd v1.4b41PL1 Copyright (c) Steve Scherf et al.
# Submitted via: CDex 1.30
#
DISCID=af0d430c
DTITLE=Preston Shannon - Midnight in Memphis
DYEAR=1996
DGENRE=Blues
TTITLE0=Round Midnight
TTITLE1=Baby I Will
TTITLE2=Size 12 Shoes
TTITLE3=Nobody's Fool
TTITLE4=The Feeling Is Gone
TTITLE5=The Clock
TTITLE6=The Streets Will Love You To Death
TTITLE7=Honky Tonk
TTITLE8=Take Your Time
TTITLE9=Can't Lose What You Never Had
TTITLE10=Handee Man
TTITLE11=Midnight In Memphis
EXTD=\nYEAR: 1996  ID3G:   0
EXTT0=
EXTT1=
EXTT2=
EXTT3=
EXTT4=
EXTT5=
EXTT6=
EXTT7=
EXTT8=
EXTT9=
EXTT10=
EXTT11=
PLAYORDER=
